# Metres; Y up; ground-centred pivot.
mtllib kyiv.mtl
o kyiv_panel_09_03
usemtl kyiv
v -30.000000 0.000000 -8.000000
v -30.000000 0.000000 6.000000
v -30.000000 27.000000 6.000000
v -30.000000 27.000000 -8.000000
v 0.000000 0.000000 6.000000
v 0.000000 0.000000 -8.000000
v 0.000000 27.000000 -8.000000
v 0.000000 27.000000 6.000000
v -30.000000 0.000000 6.000000
v 0.000000 0.000000 6.000000
v 0.000000 27.000000 6.000000
v -30.000000 27.000000 6.000000
v 0.000000 0.000000 -8.000000
v -30.000000 0.000000 -8.000000
v -30.000000 27.000000 -8.000000
v 0.000000 27.000000 -8.000000
v -30.000000 27.000000 -8.000000
v -30.000000 27.000000 6.000000
v 0.000000 27.000000 6.000000
v 0.000000 27.000000 -8.000000
v -30.000000 0.000000 6.000000
v -30.000000 0.000000 -8.000000
v 0.000000 0.000000 -8.000000
v 0.000000 0.000000 6.000000
v 0.000000 0.000000 -6.000000
v 0.000000 0.000000 8.000000
v 0.000000 21.000000 8.000000
v 0.000000 21.000000 -6.000000
v 30.000000 0.000000 8.000000
v 30.000000 0.000000 -6.000000
v 30.000000 21.000000 -6.000000
v 30.000000 21.000000 8.000000
v 0.000000 0.000000 8.000000
v 30.000000 0.000000 8.000000
v 30.000000 21.000000 8.000000
v 0.000000 21.000000 8.000000
v 30.000000 0.000000 -6.000000
v 0.000000 0.000000 -6.000000
v 0.000000 21.000000 -6.000000
v 30.000000 21.000000 -6.000000
v 0.000000 21.000000 -6.000000
v 0.000000 21.000000 8.000000
v 30.000000 21.000000 8.000000
v 30.000000 21.000000 -6.000000
v 0.000000 0.000000 8.000000
v 0.000000 0.000000 -6.000000
v 30.000000 0.000000 -6.000000
v 30.000000 0.000000 8.000000
v -14.400000 27.000000 -3.800000
v -14.400000 27.000000 1.800000
v -14.400000 28.700000 1.800000
v -14.400000 28.700000 -3.800000
v -3.600000 27.000000 1.800000
v -3.600000 27.000000 -3.800000
v -3.600000 28.700000 -3.800000
v -3.600000 28.700000 1.800000
v -14.400000 27.000000 1.800000
v -3.600000 27.000000 1.800000
v -3.600000 28.700000 1.800000
v -14.400000 28.700000 1.800000
v -3.600000 27.000000 -3.800000
v -14.400000 27.000000 -3.800000
v -14.400000 28.700000 -3.800000
v -3.600000 28.700000 -3.800000
v -14.400000 28.700000 -3.800000
v -14.400000 28.700000 1.800000
v -3.600000 28.700000 1.800000
v -3.600000 28.700000 -3.800000
v -14.400000 27.000000 1.800000
v -14.400000 27.000000 -3.800000
v -3.600000 27.000000 -3.800000
v -3.600000 27.000000 1.800000
vt 0.5078125 0.7578125
vt 0.5625000 0.7578125
vt 0.5625000 0.8671875
vt 0.5078125 0.8671875
vt 0.5078125 0.7578125
vt 0.5625000 0.7578125
vt 0.5625000 0.8671875
vt 0.5078125 0.8671875
vt 0.5078125 0.7578125
vt 0.6250000 0.7578125
vt 0.6250000 0.8671875
vt 0.5078125 0.8671875
vt 0.5078125 0.7578125
vt 0.6250000 0.7578125
vt 0.6250000 0.8671875
vt 0.5078125 0.8671875
vt 0.0078125 0.2578125
vt 0.2421875 0.2578125
vt 0.2421875 0.3671875
vt 0.0078125 0.3671875
vt 0.0078125 0.2578125
vt 0.2421875 0.2578125
vt 0.2421875 0.3671875
vt 0.0078125 0.3671875
vt 0.5078125 0.7578125
vt 0.5625000 0.7578125
vt 0.5625000 0.8428819
vt 0.5078125 0.8428819
vt 0.5078125 0.7578125
vt 0.5625000 0.7578125
vt 0.5625000 0.8428819
vt 0.5078125 0.8428819
vt 0.5078125 0.7578125
vt 0.6250000 0.7578125
vt 0.6250000 0.8428819
vt 0.5078125 0.8428819
vt 0.5078125 0.7578125
vt 0.6250000 0.7578125
vt 0.6250000 0.8428819
vt 0.5078125 0.8428819
vt 0.0078125 0.2578125
vt 0.2421875 0.2578125
vt 0.2421875 0.3671875
vt 0.0078125 0.3671875
vt 0.0078125 0.2578125
vt 0.2421875 0.2578125
vt 0.2421875 0.3671875
vt 0.0078125 0.3671875
vt 0.0078125 0.1328125
vt 0.1293403 0.1328125
vt 0.1293403 0.2421875
vt 0.0078125 0.2421875
vt 0.0078125 0.1328125
vt 0.1293403 0.1328125
vt 0.1293403 0.2421875
vt 0.0078125 0.2421875
vt 0.0078125 0.1328125
vt 0.2421875 0.1328125
vt 0.2421875 0.2421875
vt 0.0078125 0.2421875
vt 0.0078125 0.1328125
vt 0.2421875 0.1328125
vt 0.2421875 0.2421875
vt 0.0078125 0.2421875
vt 0.0078125 0.2578125
vt 0.2421875 0.2578125
vt 0.2421875 0.3671875
vt 0.0078125 0.3671875
vt 0.0078125 0.2578125
vt 0.2421875 0.2578125
vt 0.2421875 0.3671875
vt 0.0078125 0.3671875
vn -1.0000000 0.0000000 0.0000000
vn -1.0000000 0.0000000 0.0000000
vn -1.0000000 0.0000000 0.0000000
vn -1.0000000 0.0000000 0.0000000
vn 1.0000000 0.0000000 0.0000000
vn 1.0000000 0.0000000 0.0000000
vn 1.0000000 0.0000000 0.0000000
vn 1.0000000 0.0000000 0.0000000
vn 0.0000000 0.0000000 1.0000000
vn 0.0000000 0.0000000 1.0000000
vn 0.0000000 0.0000000 1.0000000
vn 0.0000000 0.0000000 1.0000000
vn 0.0000000 0.0000000 -1.0000000
vn 0.0000000 0.0000000 -1.0000000
vn 0.0000000 0.0000000 -1.0000000
vn 0.0000000 0.0000000 -1.0000000
vn 0.0000000 1.0000000 0.0000000
vn 0.0000000 1.0000000 0.0000000
vn 0.0000000 1.0000000 0.0000000
vn 0.0000000 1.0000000 0.0000000
vn 0.0000000 -1.0000000 0.0000000
vn 0.0000000 -1.0000000 0.0000000
vn 0.0000000 -1.0000000 0.0000000
vn 0.0000000 -1.0000000 0.0000000
vn -1.0000000 0.0000000 0.0000000
vn -1.0000000 0.0000000 0.0000000
vn -1.0000000 0.0000000 0.0000000
vn -1.0000000 0.0000000 0.0000000
vn 1.0000000 0.0000000 0.0000000
vn 1.0000000 0.0000000 0.0000000
vn 1.0000000 0.0000000 0.0000000
vn 1.0000000 0.0000000 0.0000000
vn 0.0000000 0.0000000 1.0000000
vn 0.0000000 0.0000000 1.0000000
vn 0.0000000 0.0000000 1.0000000
vn 0.0000000 0.0000000 1.0000000
vn 0.0000000 0.0000000 -1.0000000
vn 0.0000000 0.0000000 -1.0000000
vn 0.0000000 0.0000000 -1.0000000
vn 0.0000000 0.0000000 -1.0000000
vn 0.0000000 1.0000000 0.0000000
vn 0.0000000 1.0000000 0.0000000
vn 0.0000000 1.0000000 0.0000000
vn 0.0000000 1.0000000 0.0000000
vn 0.0000000 -1.0000000 0.0000000
vn 0.0000000 -1.0000000 0.0000000
vn 0.0000000 -1.0000000 0.0000000
vn 0.0000000 -1.0000000 0.0000000
vn -1.0000000 0.0000000 0.0000000
vn -1.0000000 0.0000000 0.0000000
vn -1.0000000 0.0000000 0.0000000
vn -1.0000000 0.0000000 0.0000000
vn 1.0000000 0.0000000 0.0000000
vn 1.0000000 0.0000000 0.0000000
vn 1.0000000 0.0000000 0.0000000
vn 1.0000000 0.0000000 0.0000000
vn 0.0000000 0.0000000 1.0000000
vn 0.0000000 0.0000000 1.0000000
vn 0.0000000 0.0000000 1.0000000
vn 0.0000000 0.0000000 1.0000000
vn 0.0000000 0.0000000 -1.0000000
vn 0.0000000 0.0000000 -1.0000000
vn 0.0000000 0.0000000 -1.0000000
vn 0.0000000 0.0000000 -1.0000000
vn 0.0000000 1.0000000 0.0000000
vn 0.0000000 1.0000000 0.0000000
vn 0.0000000 1.0000000 0.0000000
vn 0.0000000 1.0000000 0.0000000
vn 0.0000000 -1.0000000 0.0000000
vn 0.0000000 -1.0000000 0.0000000
vn 0.0000000 -1.0000000 0.0000000
vn 0.0000000 -1.0000000 0.0000000
f 1/1/1 2/2/2 3/3/3
f 1/1/1 3/3/3 4/4/4
f 5/5/5 6/6/6 7/7/7
f 5/5/5 7/7/7 8/8/8
f 9/9/9 10/10/10 11/11/11
f 9/9/9 11/11/11 12/12/12
f 13/13/13 14/14/14 15/15/15
f 13/13/13 15/15/15 16/16/16
f 17/17/17 18/18/18 19/19/19
f 17/17/17 19/19/19 20/20/20
f 21/21/21 22/22/22 23/23/23
f 21/21/21 23/23/23 24/24/24
f 25/25/25 26/26/26 27/27/27
f 25/25/25 27/27/27 28/28/28
f 29/29/29 30/30/30 31/31/31
f 29/29/29 31/31/31 32/32/32
f 33/33/33 34/34/34 35/35/35
f 33/33/33 35/35/35 36/36/36
f 37/37/37 38/38/38 39/39/39
f 37/37/37 39/39/39 40/40/40
f 41/41/41 42/42/42 43/43/43
f 41/41/41 43/43/43 44/44/44
f 45/45/45 46/46/46 47/47/47
f 45/45/45 47/47/47 48/48/48
f 49/49/49 50/50/50 51/51/51
f 49/49/49 51/51/51 52/52/52
f 53/53/53 54/54/54 55/55/55
f 53/53/53 55/55/55 56/56/56
f 57/57/57 58/58/58 59/59/59
f 57/57/57 59/59/59 60/60/60
f 61/61/61 62/62/62 63/63/63
f 61/61/61 63/63/63 64/64/64
f 65/65/65 66/66/66 67/67/67
f 65/65/65 67/67/67 68/68/68
f 69/69/69 70/70/70 71/71/71
f 69/69/69 71/71/71 72/72/72
