# Metres; Y up; ground-centred pivot.
mtllib kyiv.mtl
o kyiv_khrushchyovka_03
usemtl kyiv
v -18.000000 0.000000 -5.500000
v -18.000000 0.000000 5.500000
v -18.000000 12.000000 5.500000
v -18.000000 12.000000 -5.500000
v 18.000000 0.000000 5.500000
v 18.000000 0.000000 -5.500000
v 18.000000 12.000000 -5.500000
v 18.000000 12.000000 5.500000
v -18.000000 0.000000 5.500000
v 18.000000 0.000000 5.500000
v 18.000000 12.000000 5.500000
v -18.000000 12.000000 5.500000
v 18.000000 0.000000 -5.500000
v -18.000000 0.000000 -5.500000
v -18.000000 12.000000 -5.500000
v 18.000000 12.000000 -5.500000
v -18.000000 12.000000 -5.500000
v -18.000000 12.000000 5.500000
v 18.000000 12.000000 5.500000
v 18.000000 12.000000 -5.500000
v -18.000000 0.000000 5.500000
v -18.000000 0.000000 -5.500000
v 18.000000 0.000000 -5.500000
v 18.000000 0.000000 5.500000
v -18.250000 12.000000 -5.750000
v -18.250000 14.970000 0.000000
v 18.250000 14.970000 0.000000
v 18.250000 12.000000 -5.750000
v 18.250000 12.000000 5.750000
v 18.250000 14.970000 0.000000
v -18.250000 14.970000 0.000000
v -18.250000 12.000000 5.750000
v -18.250000 12.000000 5.750000
v -18.250000 14.970000 0.000000
v -18.250000 12.000000 -5.750000
v 18.250000 12.000000 -5.750000
v 18.250000 14.970000 0.000000
v 18.250000 12.000000 5.750000
vt 0.5078125 0.8828125
vt 0.5794271 0.8828125
vt 0.5794271 0.9921875
vt 0.5078125 0.9921875
vt 0.5078125 0.8828125
vt 0.5794271 0.8828125
vt 0.5794271 0.9921875
vt 0.5078125 0.9921875
vt 0.5078125 0.8828125
vt 0.7421875 0.8828125
vt 0.7421875 0.9921875
vt 0.5078125 0.9921875
vt 0.5078125 0.8828125
vt 0.7421875 0.8828125
vt 0.7421875 0.9921875
vt 0.5078125 0.9921875
vt 0.0078125 0.2578125
vt 0.2421875 0.2578125
vt 0.2421875 0.3671875
vt 0.0078125 0.3671875
vt 0.0078125 0.2578125
vt 0.2421875 0.2578125
vt 0.2421875 0.3671875
vt 0.0078125 0.3671875
vt 0.5078125 0.2578125
vt 0.7421875 0.2578125
vt 0.7421875 0.3671875
vt 0.5078125 0.3671875
vt 0.5078125 0.2578125
vt 0.7421875 0.2578125
vt 0.7421875 0.3671875
vt 0.5078125 0.3671875
vt 0.5078125 0.2578125
vt 0.7421875 0.2578125
vt 0.7421875 0.3671875
vt 0.5078125 0.2578125
vt 0.7421875 0.2578125
vt 0.7421875 0.3671875
vn -1.0000000 0.0000000 0.0000000
vn -1.0000000 0.0000000 0.0000000
vn -1.0000000 0.0000000 0.0000000
vn -1.0000000 0.0000000 0.0000000
vn 1.0000000 0.0000000 0.0000000
vn 1.0000000 0.0000000 0.0000000
vn 1.0000000 0.0000000 0.0000000
vn 1.0000000 0.0000000 0.0000000
vn 0.0000000 0.0000000 1.0000000
vn 0.0000000 0.0000000 1.0000000
vn 0.0000000 0.0000000 1.0000000
vn 0.0000000 0.0000000 1.0000000
vn 0.0000000 0.0000000 -1.0000000
vn 0.0000000 0.0000000 -1.0000000
vn 0.0000000 0.0000000 -1.0000000
vn 0.0000000 0.0000000 -1.0000000
vn 0.0000000 1.0000000 0.0000000
vn 0.0000000 1.0000000 0.0000000
vn 0.0000000 1.0000000 0.0000000
vn 0.0000000 1.0000000 0.0000000
vn 0.0000000 -1.0000000 0.0000000
vn 0.0000000 -1.0000000 0.0000000
vn 0.0000000 -1.0000000 0.0000000
vn 0.0000000 -1.0000000 0.0000000
vn 0.0000000 0.8884784 -0.4589184
vn 0.0000000 0.8884784 -0.4589184
vn 0.0000000 0.8884784 -0.4589184
vn 0.0000000 0.8884784 -0.4589184
vn 0.0000000 0.8884784 0.4589184
vn 0.0000000 0.8884784 0.4589184
vn 0.0000000 0.8884784 0.4589184
vn 0.0000000 0.8884784 0.4589184
vn -1.0000000 0.0000000 0.0000000
vn -1.0000000 0.0000000 0.0000000
vn -1.0000000 0.0000000 0.0000000
vn 1.0000000 0.0000000 0.0000000
vn 1.0000000 0.0000000 0.0000000
vn 1.0000000 0.0000000 0.0000000
f 1/1/1 2/2/2 3/3/3
f 1/1/1 3/3/3 4/4/4
f 5/5/5 6/6/6 7/7/7
f 5/5/5 7/7/7 8/8/8
f 9/9/9 10/10/10 11/11/11
f 9/9/9 11/11/11 12/12/12
f 13/13/13 14/14/14 15/15/15
f 13/13/13 15/15/15 16/16/16
f 17/17/17 18/18/18 19/19/19
f 17/17/17 19/19/19 20/20/20
f 21/21/21 22/22/22 23/23/23
f 21/21/21 23/23/23 24/24/24
f 25/25/25 26/26/26 27/27/27
f 25/25/25 27/27/27 28/28/28
f 29/29/29 30/30/30 31/31/31
f 29/29/29 31/31/31 32/32/32
f 33/33/33 34/34/34 35/35/35
f 36/36/36 37/37/37 38/38/38
